<?xml version="1.0" encoding="UTF-8" standalone="no"?>
<svg
   xmlns:dc="http://purl.org/dc/elements/1.1/"
   xmlns:cc="http://creativecommons.org/ns#"
   xmlns:rdf="http://www.w3.org/1999/02/22-rdf-syntax-ns#"
   xmlns:svg="http://www.w3.org/2000/svg"
   xmlns="http://www.w3.org/2000/svg"
   viewBox="0 0 253.228 370.39334"
   height="370.39334"
   width="253.228"
   xml:space="preserve"
   id="svg2"
   version="1.1"><metadata
     id="metadata8"><rdf:RDF><cc:Work
         rdf:about=""><dc:format>image/svg+xml</dc:format><dc:type
           rdf:resource="http://purl.org/dc/dcmitype/StillImage" /></cc:Work></rdf:RDF></metadata><defs
     id="defs6"><clipPath
       id="clipPath18"
       clipPathUnits="userSpaceOnUse"><path
         id="path16"
         d="M 0,277.795 H 189.921 V 0 H 0 Z" /></clipPath><clipPath
       id="clipPath34"
       clipPathUnits="userSpaceOnUse"><path
         id="path32"
         d="M 0,277.795 H 189.921 V 0 H 0 Z" /></clipPath><clipPath
       id="clipPath62"
       clipPathUnits="userSpaceOnUse"><path
         id="path60"
         d="M 0,277.795 H 189.921 V 0 H 0 Z" /></clipPath><clipPath
       id="clipPath106"
       clipPathUnits="userSpaceOnUse"><path
         id="path104"
         d="M 0,277.795 H 189.921 V 0 H 0 Z" /></clipPath><clipPath
       id="clipPath138"
       clipPathUnits="userSpaceOnUse"><path
         id="path136"
         d="M 0,277.795 H 189.921 V 0 H 0 Z" /></clipPath><clipPath
       id="clipPath194"
       clipPathUnits="userSpaceOnUse"><path
         id="path192"
         d="M 0,277.795 H 189.921 V 0 H 0 Z" /></clipPath><clipPath
       id="clipPath202"
       clipPathUnits="userSpaceOnUse"><path
         id="path200"
         d="M 79.6583,214.801 H 111.514 V 146.77 H 79.6583 Z" /></clipPath><clipPath
       id="clipPath230"
       clipPathUnits="userSpaceOnUse"><path
         id="path228"
         d="M 86.0294,214.801 H 105.143 V 180.786 H 86.0294 Z" /></clipPath><clipPath
       id="clipPath250"
       clipPathUnits="userSpaceOnUse"><path
         id="path248"
         d="M 86.0294,180.793 H 105.143 V 146.777 H 86.0294 Z" /></clipPath><clipPath
       id="clipPath270"
       clipPathUnits="userSpaceOnUse"><path
         id="path268"
         d="m 95.5861,187.872 h 9.5569 v -7.086 h -9.5569 z" /></clipPath><clipPath
       id="clipPath286"
       clipPathUnits="userSpaceOnUse"><path
         id="path284"
         d="m 92.4005,185.038 h 6.3712 v -8.504 h -6.3712 z" /></clipPath></defs><g
     transform="matrix(1.3333333,0,0,-1.3333333,0,370.39333)"
     id="g10"><g
       id="g12"><g
         clip-path="url(#clipPath18)"
         id="g14"><g
           transform="translate(53.3557,208.8405)"
           id="g20"><path
             id="path22"
             style="fill:#423f51;fill-opacity:1;fill-rule:nonzero;stroke:none"
             d="m 0,0 c 5.845,1.828 13.815,3.28 16.874,8.389 4.49,7.499 7.436,18.085 13.054,18.314 7.186,0.293 14.014,0.016 21.271,0.024 3.586,0.004 7.085,0.307 8.174,-3.11 8.719,-27.361 19.876,-16.784 25.083,-21.205 5.851,-4.967 -5.711,1.452 -2.515,-1.743 4.877,-4.878 9.828,-0.428 20.318,-15.167 3.95,-5.55 -7.205,7.106 -1.286,-1.211 1.736,-2.439 8.766,-7.363 10.877,-8.734 5.436,-2.317 13.94,-14.331 17.373,-21.703 -3.651,2.627 -7.302,5.253 -10.953,7.879 7.5,-7.837 12.783,-17.773 15.087,-28.374 -4.905,2.694 -9.29,6.333 -12.842,10.658 4.506,-8.36 9.013,-16.719 13.52,-25.079 -3.812,1.632 -7.052,4.565 -9.055,8.195 5.961,-9.947 7.771,-22.297 4.917,-33.536 -3.287,3.901 -6.573,7.802 -8.661,12.312 3.03,-15.416 0.563,-31.855 -6.857,-45.704 -1.464,5.512 -2.928,11.024 -4.391,16.536 -1.814,-15.294 -7.173,-30.156 -15.535,-43.089 -0.355,5.705 -0.71,11.409 -1.065,17.114 -4.69,-16.406 -14.433,-31.33 -27.567,-42.224 1.432,5.142 2.863,10.285 4.295,15.427 -7.322,-8.13 -14.643,-16.261 -21.964,-24.391 -1.867,-2.073 -3.631,-3.821 -6.417,-3.671 -2.225,0.12 -4.036,1.759 -5.61,3.336 -7.081,7.094 -14.003,14.345 -19.658,22.62 0.337,-3.9 0.674,-7.799 1.011,-11.699 -13.267,8.999 -22.295,23.988 -24.046,39.923 -2.735,-4.797 -3.817,-10.517 -3.022,-15.981 -10.315,10.923 -15.557,26.451 -13.973,41.391 -3.837,-3.905 -6.429,-9.016 -7.313,-14.419 -7.108,12.577 -9.118,27.942 -5.483,41.925 -3.304,-3.327 -6.608,-6.653 -9.912,-9.979 -0.692,10.154 0.304,20.422 2.934,30.254 -1.644,-2.533 -4.482,-4.253 -7.488,-4.54 4.181,6.59 8.361,13.18 12.541,19.77 -3.406,-2.571 -7.607,-4.072 -11.87,-4.242 3.742,9.123 9.104,17.579 15.868,25.501 -3.706,-1.306 -5.798,-2.617 -9.222,-4.543 4.223,7.945 7.241,13.169 13.691,18.448 -1.982,-0.748 18.231,13.993 14.253,11.533 -0.581,-0.36 -2.439,-1.016 -2.563,-0.344 -0.73,3.942 14.143,8.779 21.318,12.432 C 7.273,-0.628 -8.271,-2.586 0,0" /></g><g
           transform="translate(41.977,154.6494)"
           id="g24"><path
             id="path26"
             style="fill:#2d2b3a;fill-opacity:1;fill-rule:nonzero;stroke:none"
             d="m 0,0 c -9.104,3.232 -18.58,-3.741 -23.177,-11.046 3.221,0.167 6.442,0.334 9.664,0.502 -4.619,-4.671 -8.174,-10.386 -10.322,-16.593 4.826,0.869 9.747,1.22 14.648,1.044 -2.263,-6.812 1.169,-15.035 7.604,-18.217 -4.751,-1.336 -9.136,-3.95 -12.571,-7.495 4.575,-0.381 9.065,-1.75 13.075,-3.985 -1.782,-8.492 -0.495,-17.594 3.572,-25.259 0.776,2.198 1.552,4.396 2.328,6.594 3.709,-8.183 7.931,-16.132 12.839,-23.834 1.506,-13.293 2.808,-26.323 11.066,-37.267 0.338,3.798 -0.416,6.977 -0.961,10.922 8.229,-10.906 15.972,-19.597 26.3,-27.805 9.25,9.25 17.454,14.338 26.052,29.069 -0.626,-4.89 -2.29,-9.007 -2.917,-13.897 5.069,5.473 8.852,13.353 10.237,20.683 1.385,7.33 1.496,15.891 4.674,22.64 3.172,6.737 8.69,12.922 8.476,20.366 0.772,-2.633 2.24,-5.059 4.215,-6.963 2.998,7.905 3.883,16.599 2.183,24.682 4.801,1.304 9.927,1.394 14.772,0.26 -0.678,6.514 -7.338,11.775 -13.832,10.925 4.21,5.594 8.612,9.741 8.576,16.742 4.693,-0.034 9.381,1.208 13.845,-0.24 -1.328,6.154 -4.346,11.934 -8.636,16.543 2.835,-0.289 5.67,-0.578 8.505,-0.867 -4.77,8.702 -17.774,16.379 -24.84,11.75 0.047,0 0.093,-0.052 0.139,-0.052" /></g></g></g><g
       id="g28"><g
         clip-path="url(#clipPath34)"
         id="g30"><g
           transform="translate(113.0675,130.946)"
           id="g36"><path
             id="path38"
             style="fill:#3b3849;fill-opacity:1;fill-rule:nonzero;stroke:none"
             d="m 0,0 c -0.301,2.243 1.059,4.337 2.356,6.192 0.883,1.261 1.817,2.569 3.177,3.29 1.356,0.719 2.953,0.76 4.486,0.838 2.803,0.142 5.698,0.493 8.109,1.932 2.353,1.405 4.029,3.731 5.229,6.196 0.649,1.332 1.204,2.759 2.253,3.807 1.029,1.028 2.451,1.59 3.886,1.832 4.4,0.743 9.15,-1.592 11.25,-5.53 1.502,-2.817 1.674,-6.151 1.492,-9.339 -0.229,-4.01 -0.985,-8.043 -2.763,-11.645 -1.777,-3.602 -4.648,-6.754 -8.325,-8.369 -1.259,-0.553 -2.596,-0.923 -3.831,-1.526 -3.876,-1.892 -6.433,-6.204 -6.22,-10.473 -1.574,-6.859 -3.77,-13.574 -6.555,-20.037 -1.127,-2.616 -2.407,-5.269 -4.545,-7.153 C 5.221,-37.951 1.806,-25.376 -0.158,-12.577 -0.81,-8.335 0.551,-4.1 0,0" /></g><g
           transform="translate(77.5254,130.946)"
           id="g40"><path
             id="path42"
             style="fill:#3b3849;fill-opacity:1;fill-rule:nonzero;stroke:none"
             d="m 0,0 c 0.301,2.243 -1.059,4.337 -2.356,6.192 -0.883,1.261 -1.817,2.569 -3.177,3.29 -1.356,0.719 -2.953,0.76 -4.486,0.838 -2.803,0.142 -5.698,0.493 -8.109,1.932 -2.353,1.405 -4.029,3.731 -5.229,6.196 -0.649,1.332 -1.204,2.759 -2.253,3.807 -1.029,1.028 -2.451,1.59 -3.886,1.832 -4.4,0.743 -9.15,-1.592 -11.25,-5.53 -1.502,-2.817 -1.674,-6.151 -1.492,-9.339 0.229,-4.01 0.985,-8.043 2.763,-11.645 1.777,-3.602 4.648,-6.754 8.325,-8.369 1.259,-0.553 2.596,-0.923 3.831,-1.526 3.876,-1.892 6.433,-6.204 6.22,-10.473 1.574,-6.859 3.77,-13.574 6.555,-20.037 1.127,-2.616 2.407,-5.269 4.545,-7.153 4.778,12.034 8.193,24.609 10.157,37.408 C 0.81,-8.335 -0.551,-4.1 0,0" /></g><g
           transform="translate(71.661,109.8139)"
           id="g44"><path
             id="path46"
             style="fill:#464456;fill-opacity:1;fill-rule:nonzero;stroke:none"
             d="m 0,0 c -0.318,-0.938 -0.851,-2.043 -1.88,-2.122 -2.485,2.785 -1.607,6.937 -1.522,10.596 0.083,3.632 -0.782,7.28 -2.497,10.523 -0.607,1.147 -1.324,2.259 -1.672,3.502 -0.513,1.836 -0.159,3.835 0.736,5.534 0.532,1.009 1.272,1.948 2.276,2.546 2.101,1.25 4.977,0.72 6.927,-0.735 1.95,-1.456 4.194,-2.059 5.073,-4.269 C 7.827,24.603 7.098,21.893 6.617,20.96 6.345,20.433 2.417,7.127 0,0" /></g><g
           transform="translate(118.1572,109.8139)"
           id="g48"><path
             id="path50"
             style="fill:#464456;fill-opacity:1;fill-rule:nonzero;stroke:none"
             d="m 0,0 c 0.304,-0.938 0.813,-2.043 1.796,-2.122 2.375,2.785 1.536,6.937 1.455,10.596 -0.08,3.632 0.748,7.28 2.386,10.523 0.58,1.147 1.265,2.259 1.597,3.502 0.491,1.836 0.153,3.835 -0.703,5.534 -0.508,1.009 -1.215,1.948 -2.175,2.546 -2.007,1.25 -4.755,0.72 -6.618,-0.735 C -4.126,28.388 -5.711,26.691 -6.55,24.481 -6.92,23.508 -6.782,21.893 -6.323,20.96 -6.063,20.433 -2.31,7.127 0,0" /></g><g
           transform="translate(108.3935,178.1332)"
           id="g52"><path
             id="path54"
             style="fill:#484558;fill-opacity:1;fill-rule:nonzero;stroke:none"
             d="m 0,0 c 2.953,-6.022 -0.309,-13.05 -1.23,-19.693 -1.738,-12.528 6.642,-24.181 9.467,-36.268 2.503,-10.706 6.892,-20.713 7.826,-31.669 0.401,-4.701 -0.415,-10.016 -1.678,-14.562 -1.262,-4.547 -4.186,-8.845 -8.518,-10.716 -1.513,-0.654 -3.242,-1.058 -4.309,-2.313 -0.618,-0.728 -0.933,-1.658 -1.413,-2.483 -1.075,-1.846 -2.941,-3.104 -4.887,-3.984 -6.625,-2.999 -14.875,-2.023 -20.619,2.438 -0.989,0.768 -1.934,1.668 -2.413,2.826 -0.377,0.91 -0.46,1.965 -1.071,2.738 -1.001,1.267 -2.893,1.224 -4.415,1.763 -2.643,0.938 -4.143,3.661 -5.405,6.166 -1.99,3.951 -4.029,8.119 -3.871,12.54 0.098,2.721 -0.22,5.585 0.281,8.261 0.849,4.531 0.793,8.818 2.17,13.537 4.995,17.115 13.764,32.416 14.868,50.915 0.223,3.75 -1.217,7.429 -1.358,11.183 -0.141,3.755 0.684,7.793 3.393,10.396 2.987,2.871 7.507,3.347 11.65,3.302 C -7.167,4.329 -1.742,3.552 0,0" /></g></g></g><g
       id="g56"><g
         clip-path="url(#clipPath62)"
         id="g58"><g
           transform="translate(20.5026,223.0524)"
           id="g64"><path
             id="path66"
             style="fill:#2c2a39;fill-opacity:1;fill-rule:nonzero;stroke:none"
             d="M 0,0 C -3.516,15.059 3.164,46.755 11.774,52.1 20.22,57.344 49.274,13.126 58.507,12.626 69.597,12.026 44.753,-18.138 29.238,-20.061 -8.579,-24.746 4.597,-19.688 0,0" /></g><g
           transform="translate(170.3022,223.0524)"
           id="g68"><path
             id="path70"
             style="fill:#2c2a39;fill-opacity:1;fill-rule:nonzero;stroke:none"
             d="m 0,0 c 3.516,15.059 -3.164,46.755 -11.774,52.1 -8.446,5.244 -37.307,-39.77 -46.54,-40.27 -11.09,-0.6 14.062,-29.612 29.076,-31.891 C 8.437,-25.778 -4.597,-19.688 0,0" /></g><g
           transform="translate(165.0784,208.3961)"
           id="g72"><path
             id="path74"
             style="fill:#363444;fill-opacity:1;fill-rule:nonzero;stroke:none"
             d="M 0,0 C 0,17.876 1.817,50.281 -8.376,54.634 -18.57,58.987 -26.058,39.381 -36.616,23.477 -46.926,7.948 -26.65,2.41 -16.457,-1.943 -6.263,-6.296 0,-18.64 0,0" /></g><g
           transform="translate(148.5009,214.2029)"
           id="g76"><path
             id="path78"
             style="fill:#434052;fill-opacity:1;fill-rule:nonzero;stroke:none"
             d="m 0,0 c 1.76,1.18 3.528,2.401 4.905,4.012 1.961,2.296 2.998,5.231 3.788,8.145 2.225,8.203 1.72,18.317 -2.129,25.895 -5.499,-5.639 -8.996,-13.251 -12.219,-20.438 2.266,0.195 2.771,0.259 5.004,0.691 -2.619,-2.344 -3.737,-4.189 -6.356,-6.533 2.744,0.951 3.569,1.168 6.435,1.641 C -2.698,8.956 -4.731,6.027 -7.935,2.21 -8.803,1.175 -9.704,0.073 -9.93,-1.258 c -0.226,-1.331 0.517,-2.927 1.852,-3.127 1.002,-0.151 1.996,0.553 2.422,1.473 C -5.23,-1.992 -1.734,-1.162 0,0" /></g><g
           transform="translate(152.7279,193.6827)"
           id="g80"><path
             id="path82"
             style="fill:#1a1825;fill-opacity:1;fill-rule:nonzero;stroke:none"
             d="m 0,0 c 4.804,-4.804 10.702,-10.51 17.722,-12.916 1.245,-0.427 2.551,-0.792 3.861,-0.667 1.311,0.124 2.638,0.832 3.167,2.037 0.292,0.667 0.32,1.424 0.221,2.146 -0.3,2.172 -1.786,4.143 -3.862,4.921 -1.074,0.482 -2.147,0.965 -3.221,1.448 2.71,0.522 4.28,3.818 3.504,6.467 -0.776,2.649 -3.347,4.491 -6.05,5.054 -1.412,0.294 -2.883,0.298 -4.263,0.719 -3.342,1.02 -5.569,4.418 -6.005,7.884 -0.437,3.466 0.639,6.96 2.158,10.106 0.283,0.586 0.589,1.199 0.549,1.848 C 7.74,29.696 7.197,30.364 6.552,30.276 6.094,30.214 5.766,29.816 5.487,29.447 4.285,27.855 3.085,26.228 1.526,24.984 c -1.558,-1.245 -3.552,-2.082 -5.53,-1.825 -1.057,0.138 -2.062,0.579 -3.125,0.665 -1.884,0.152 -3.808,-0.942 -4.64,-2.639 -0.641,-1.306 -0.874,-3.105 -2.255,-3.563 -1.393,-0.461 -3.204,0.83 -4.253,-0.197 -0.734,-0.718 -0.312,-2.059 0.537,-2.637 0.849,-0.578 1.935,-0.63 2.956,-0.739 0.161,-0.788 -0.96,-1.209 -1.741,-1.018 -0.781,0.192 -1.594,0.65 -2.336,0.34 -0.816,-0.341 -1.021,-1.435 -0.813,-2.295 0.566,-2.349 3.027,-3.638 5.231,-4.63 C -10.526,4.682 -6.609,2.919 -2.692,1.155 -1.286,0.522 -0.118,0.118 0,0" /></g><g
           transform="translate(24.3352,209.7972)"
           id="g84"><path
             id="path86"
             style="fill:#363444;fill-opacity:1;fill-rule:nonzero;stroke:none"
             d="M 0,0 C 0,17.876 -1.817,50.281 8.376,54.634 18.57,58.987 26.058,39.381 36.616,23.477 46.926,7.948 26.65,2.41 16.457,-1.943 6.263,-6.296 0,-18.64 0,0" /></g><g
           transform="translate(42.7258,214.2029)"
           id="g88"><path
             id="path90"
             style="fill:#1a1825;fill-opacity:1;fill-rule:nonzero;stroke:none"
             d="m 0,0 c -1.76,1.18 -3.528,2.401 -4.905,4.012 -1.961,2.296 -2.998,5.231 -3.788,8.145 -2.225,8.203 -1.72,18.317 2.129,25.895 C -1.065,32.413 2.432,24.801 5.655,17.614 3.389,17.809 2.884,17.873 0.651,18.305 3.27,15.961 4.388,14.116 7.007,11.772 4.263,12.723 3.438,12.94 0.572,13.413 2.698,8.956 4.731,6.027 7.935,2.21 8.803,1.175 9.704,0.073 9.93,-1.258 10.156,-2.589 9.413,-4.185 8.078,-4.385 7.076,-4.536 6.082,-3.832 5.656,-2.912 5.23,-1.992 1.734,-1.162 0,0" /></g><g
           transform="translate(39.7019,193.6827)"
           id="g92"><path
             id="path94"
             style="fill:#1a1825;fill-opacity:1;fill-rule:nonzero;stroke:none"
             d="m 0,0 c -4.804,-4.804 -10.702,-10.51 -17.722,-12.916 -1.245,-0.427 -2.551,-0.792 -3.861,-0.667 -1.311,0.124 -2.638,0.832 -3.167,2.037 -0.292,0.667 -0.32,1.424 -0.221,2.146 0.3,2.172 1.786,4.143 3.862,4.921 1.074,0.482 2.147,0.965 3.221,1.448 -2.71,0.522 -4.28,3.818 -3.504,6.467 0.776,2.649 3.347,4.491 6.05,5.054 1.412,0.294 2.883,0.298 4.263,0.719 3.341,1.02 5.569,4.418 6.005,7.884 0.437,3.466 -0.639,6.96 -2.158,10.106 -0.283,0.586 -0.589,1.199 -0.549,1.848 0.041,0.649 0.584,1.317 1.229,1.229 0.458,-0.062 0.786,-0.46 1.065,-0.829 1.202,-1.592 2.402,-3.219 3.961,-4.463 1.558,-1.245 3.552,-2.082 5.53,-1.825 1.057,0.138 2.062,0.579 3.125,0.665 1.884,0.152 3.808,-0.942 4.64,-2.639 0.641,-1.306 0.874,-3.105 2.255,-3.563 1.393,-0.461 3.204,0.83 4.253,-0.197 0.734,-0.718 0.312,-2.059 -0.537,-2.637 -0.849,-0.578 -1.935,-0.63 -2.956,-0.739 -0.161,-0.788 0.96,-1.209 1.741,-1.018 0.781,0.192 1.594,0.65 2.336,0.34 0.816,-0.341 1.021,-1.435 0.813,-2.295 C 19.108,8.727 16.647,7.438 14.443,6.446 10.526,4.682 6.609,2.919 2.692,1.155 1.286,0.522 0.118,0.118 0,0" /></g><g
           transform="translate(140.3721,237.9451)"
           id="g96"><path
             id="path98"
             style="fill:#1a1825;fill-opacity:1;fill-rule:nonzero;stroke:none"
             d="m 0,0 c 0.295,1.258 1.04,2.353 1.615,3.51 1.069,2.148 1.566,4.577 1.427,6.971 -0.025,0.43 -0.08,0.886 -0.349,1.222 -0.545,0.682 -1.605,0.523 -2.449,0.3 C -0.824,11.72 -1.918,11.425 -2.813,10.777 -3.839,10.034 -4.501,8.903 -5.123,7.8 -6.238,5.823 -7.32,3.826 -8.368,1.812 c -2.21,-4.248 -4.314,-8.755 -4.359,-13.543 -0.006,-0.604 0.028,-1.234 0.321,-1.762 0.654,-1.182 2.634,-1.255 3.372,-0.124 0.507,-0.568 0.222,-1.482 0.495,-2.193 0.401,-1.047 1.876,-1.252 2.893,-0.778 1.017,0.473 1.745,1.388 2.613,2.098 0.329,0.269 0.708,0.52 1.132,0.53 0.543,0.013 1.006,-0.363 1.505,-0.578 1.445,-0.622 3.08,0.126 4.471,0.86 1.294,0.682 5.369,2.932 6.076,4.212 -3.017,0.391 -5.56,-0.821 -8.252,-2.238 0.316,0.727 -0.142,0.45 0.485,0.936 2.242,1.735 3.525,3.912 5.767,5.647 C 6.096,-5.629 5.241,-6.097 3.125,-6.071 5.028,-3.563 4.498,-1.08 6.11,1.624 4.104,1.359 1.905,0.858 0,0" /></g></g></g><g
       id="g100"><g
         clip-path="url(#clipPath106)"
         id="g102"><g
           transform="translate(96.3125,70.408)"
           id="g108"><path
             id="path110"
             style="fill:#272633;fill-opacity:1;fill-rule:nonzero;stroke:none"
             d="m 0,0 c -0.044,-1.36 0.175,-2.764 1.361,-3.43 1.187,-0.666 2.627,-0.784 3.985,-0.858 2.829,-0.155 5.587,-0.152 8.641,-0.563 0.394,-0.052 1.077,-0.125 1.35,-0.414 0.667,-0.71 0.236,-1.211 -0.721,-1.39 -3.159,-0.591 -6.161,-0.757 -9.194,-0.757 -6.184,0 -12.076,0.169 -18.233,0.169 -1.64,0 -1.209,0.075 -2.629,0.415 -0.993,0.238 -1.07,0.153 -1.717,1.266 -0.522,0.899 2.907,0.861 4.084,0.861 2.135,0 3.838,0.147 6.213,0.289 1.019,0.061 2.024,0.42 2.882,0.972 0.859,0.553 1.792,1.465 1.834,2.485 0.014,0.34 -0.042,0.683 0.003,1.021 0.071,0.542 -0.287,1.311 0.1,1.698 0.323,0.323 1.073,0.115 1.796,0.008 C 0.281,1.694 0.017,0.52 0,0" /></g><g
           transform="translate(80.5724,81.9226)"
           id="g112"><path
             id="path114"
             style="fill:#211f2d;fill-opacity:1;fill-rule:nonzero;stroke:none"
             d="m 0,0 c -4.194,10.307 4.871,14.375 15,14.375 9.224,0 19.015,-4.123 15.25,-13.625 C 27.783,-5.476 22.87,-11.125 15,-11.125 7.13,-11.125 2.64,-6.488 0,0" /></g><g
           transform="translate(109.9904,81.2626)"
           id="g116"><path
             id="path118"
             style="fill:#2b2838;fill-opacity:1;fill-rule:nonzero;stroke:none"
             d="M 0,0 C 1.247,1.644 2.245,5.365 1.138,8.097 0.031,10.829 -2.58,12.9 -5.448,13.581 -5.634,13.625 -5.844,13.66 -6.006,13.558 -6.209,13.43 -6.242,13.153 -6.255,12.914 -6.378,10.559 -6.5,8.204 -6.623,5.849 -5.017,5.288 -3.402,4.651 -2.089,3.569 -0.776,2.488 -0.314,1.585 0,0" /></g><g
           transform="translate(81.0984,81.1629)"
           id="g120"><path
             id="path122"
             style="fill:#2b2838;fill-opacity:1;fill-rule:nonzero;stroke:none"
             d="m 0,0 c -1.585,2.485 -2.105,5.803 -0.998,8.535 1.107,2.732 3.878,4.805 6.746,5.486 0.186,0.044 0.769,0.28 0.957,0.244 C 7.046,14.2 6.826,13.644 6.838,13.405 6.961,11.05 6.734,8.645 6.856,6.29 5.251,5.729 3.635,5.092 2.322,4.01 1.01,2.929 0.027,1.324 0,0" /></g><g
           transform="translate(86.797,94.8756)"
           id="g124"><path
             id="path126"
             style="fill:#2e2c3a;fill-opacity:1;fill-rule:nonzero;stroke:none"
             d="m 0,0 c -0.694,-0.48 -1.113,-1.28 -1.302,-2.102 -0.189,-0.822 -0.173,-1.675 -0.156,-2.519 0.012,-0.578 0.045,-1.212 0.435,-1.639 0.474,-0.518 1.266,-0.881 1.967,-0.841 4.521,0.264 9.038,0.393 13.54,0.118 0.994,-0.06 2.086,-0.3 2.885,0.294 0.523,0.389 0.751,1.055 0.901,1.69 0.216,0.914 0.328,1.852 0.335,2.791 0.004,0.641 -0.061,1.334 -0.482,1.818 -0.442,0.508 -1.194,0.527 -1.822,0.77 -2.784,1.078 -5.6,1.142 -8.404,1.042 C 5.006,1.319 2.057,1.421 0,0" /></g><g
           transform="translate(106.797,80.5795)"
           id="g128"><path
             id="path130"
             style="fill:#292636;fill-opacity:1;fill-rule:nonzero;stroke:none"
             d="m 0,0 c -0.188,1.727 -1.507,3.197 -3.243,3.27 -1.736,0.073 -3.424,-1.259 -3.756,-2.964 -2.547,0.023 -5.344,0.046 -7.892,0.069 -0.641,0.871 -1.007,1.852 -2.03,2.202 -1.024,0.35 -3.111,0.474 -3.876,-0.291 -1.258,-1.257 -1.194,-2.617 -2.614,-2.817 -1.229,-0.172 -2.384,0.967 -2.497,2.203 -0.113,1.236 0.365,2.434 1.354,3.185 0.989,0.75 2.208,1.625 3.413,1.922 4.356,1.074 8.876,0.819 13.363,0.791 C -4.401,7.549 -0.746,7.271 1.817,5.072 2.561,4.433 3.196,3.621 3.422,2.668 3.649,1.715 3.398,0.612 2.638,-0.007 1.878,-0.625 0.073,-0.674 0,0" /></g></g></g><g
       id="g132"><g
         clip-path="url(#clipPath138)"
         id="g134"><g
           transform="translate(43.2592,153.7659)"
           id="g140"><path
             id="path142"
             style="fill:#666473;fill-opacity:1;fill-rule:nonzero;stroke:none"
             d="m 0,0 c 0.217,-6.299 3.085,-11.676 7.03,-16.591 2.624,-3.269 6.338,-6.153 10.527,-5.998 4.021,0.149 7.389,3.033 10.056,6.046 0.538,0.608 1.496,1.783 1.392,2.587 -0.092,0.719 -1.067,0.922 -1.755,1.15 -0.688,0.229 -1.503,0.183 -2.223,0.265 -3.37,0.386 -6.049,1.376 -8.669,3.117 C 12.713,-7.002 11.909,-3.9 8.913,-0.71 7.108,1.212 4.34,1.686 1.73,1.309 0.782,1.172 -0.03,0.871 0,0" /></g><g
           transform="translate(148.428,153.7659)"
           id="g144"><path
             id="path146"
             style="fill:#666473;fill-opacity:1;fill-rule:nonzero;stroke:none"
             d="m 0,0 c 0.728,-2.632 -2.835,-11.176 -6.78,-16.091 -2.624,-3.269 -6.338,-6.153 -10.527,-5.998 -4.021,0.149 -7.389,3.033 -10.056,6.046 -0.538,0.608 -1.496,1.783 -1.392,2.587 0.092,0.719 1.067,0.922 1.755,1.15 0.688,0.229 1.502,0.183 2.223,0.265 3.37,0.386 6.049,1.376 8.669,3.117 3.644,2.422 3.998,5.707 6.994,8.897 1.805,1.922 4.773,1.575 7.373,1.137 C -0.684,0.932 -0.272,0.982 0,0" /></g><g
           transform="translate(141.1927,168.917)"
           id="g148"><path
             id="path150"
             style="fill:#2d2b39;fill-opacity:1;fill-rule:nonzero;stroke:none"
             d="m 0,0 c -4.151,0.053 -8.628,-0.46 -12.297,-3.079 -2.921,-2.083 -4.109,-5.755 -5.771,-8.935 -3.124,-5.979 -6.316,-11.564 -8.012,-18.094 -0.236,-0.908 -0.624,-1.677 -1.129,-2.468 -0.505,-0.791 -1.19,-1.594 -2.129,-1.591 -0.992,0.003 -1.843,0.701 -2.502,1.443 -3.611,4.061 -3.992,9.988 -3.952,15.422 0.039,5.331 0.316,10.722 1.839,15.831 0.355,1.189 1.198,2.616 2.411,2.354 0.854,-0.185 1.279,-1.13 1.547,-1.962 1.611,-5 -0.821,-7.225 2.32,-12.296 0.603,-0.974 1.393,-0.376 2.011,0.628 3.88,6.308 8.169,11.192 14.55,14.951 2.513,1.481 5.524,2.371 8.367,1.719 C 0.097,3.271 2.918,1.571 2.932,-1.347 1.946,-0.628 0.746,-0.009 0,0" /></g><g
           transform="translate(48.2235,168.917)"
           id="g152"><path
             id="path154"
             style="fill:#2d2b39;fill-opacity:1;fill-rule:nonzero;stroke:none"
             d="m 0,0 c 4.151,0.053 8.628,-0.46 12.297,-3.079 2.921,-2.083 4.109,-5.755 5.771,-8.935 3.124,-5.979 6.316,-10.714 8.012,-17.244 0.236,-0.908 0.629,-0.57 1.865,-2.253 0.556,-0.756 0.686,-0.602 1.696,-1.976 0.492,-0.671 1.54,0.021 2.199,0.763 3.611,4.061 3.992,9.988 3.952,15.422 -0.039,5.331 -0.316,10.722 -1.839,15.831 -0.355,1.189 -1.198,2.616 -2.411,2.354 -0.854,-0.185 -1.279,-1.13 -1.547,-1.962 -1.611,-5 0.821,-7.225 -2.32,-12.296 -0.603,-0.974 -1.143,-0.376 -1.761,0.628 -3.88,6.308 -8.419,11.192 -14.8,14.951 C 8.601,3.685 5.59,4.575 2.747,3.923 -0.097,3.271 -2.918,1.571 -2.932,-1.347 -1.946,-0.628 -0.746,-0.009 0,0" /></g><g
           transform="translate(119.5829,157.8419)"
           id="g156"><path
             id="path158"
             style="fill:#666473;fill-opacity:1;fill-rule:nonzero;stroke:none"
             d="m 0,0 c -1.047,-1.278 -2.407,-2.299 -3.926,-2.948 -0.309,-0.131 -0.636,-0.25 -0.971,-0.225 -0.715,0.054 -1.211,0.724 -1.544,1.359 -1.735,3.314 -1.715,7.404 -0.304,10.869 1.411,3.464 4.115,6.316 7.303,8.273 3.188,1.958 6.843,3.065 10.54,3.634 0.32,0.049 0.683,0.083 0.933,-0.122 0.177,-0.145 0.253,-0.379 0.292,-0.605 C 12.59,18.671 11.479,17.248 10.508,15.994 8.806,13.795 7.334,11.418 6.124,8.914 5.295,7.199 4.586,5.422 3.63,3.775 2.673,2.127 0.984,1.201 0,0" /></g><g
           transform="translate(71.3264,157.8419)"
           id="g160"><path
             id="path162"
             style="fill:#666473;fill-opacity:1;fill-rule:nonzero;stroke:none"
             d="m 0,0 c 1.047,-1.278 2.407,-2.299 3.926,-2.948 0.309,-0.131 0.636,-0.25 0.971,-0.225 0.715,0.054 1.211,0.724 1.544,1.359 1.735,3.314 1.715,7.404 0.304,10.869 -1.411,3.464 -4.115,6.316 -7.303,8.273 -3.188,1.958 -6.843,3.065 -10.54,3.634 -0.32,0.049 -0.683,0.083 -0.933,-0.122 -0.177,-0.145 -0.253,-0.379 -0.292,-0.605 -0.267,-1.564 0.844,-2.987 1.815,-4.241 1.702,-2.199 3.174,-4.576 4.384,-7.08 C -5.295,7.199 -4.586,5.422 -3.63,3.775 -2.673,2.127 -0.984,1.201 0,0" /></g><g
           transform="translate(64.9286,167.3119)"
           id="g164"><path
             id="path166"
             style="fill:#7e7c8a;fill-opacity:1;fill-rule:nonzero;stroke:none"
             d="m 0,0 c -0.519,0.985 -0.268,2.379 0.488,3.197 0.334,0.36 0.758,0.623 1.183,0.868 1.265,0.727 2.596,1.338 3.971,1.823 0.417,0.147 0.854,0.284 1.294,0.238 0.416,-0.043 0.796,0.003 1.15,-0.219 2.169,-1.359 3.731,-3.765 4.882,-6.051 0.33,-0.654 0.632,-1.327 0.815,-2.036 0.233,-0.9 0.271,-1.837 0.29,-2.766 0.045,-2.236 -0.055,-4.627 -1.343,-6.455 -0.543,-0.771 -1.01,-1.58 -2.098,-1.134 -0.474,0.194 -0.997,0.467 -1.408,0.669 -1.61,0.788 -2.538,2.225 -3.801,3.373 -0.67,0.61 -0.732,0.597 -1.119,0.985 -1.631,1.631 -1.737,1.99 -2.271,3.186 C 1.626,-3.41 1.395,-3.006 0.918,-1.936 0.494,-0.986 0.291,-0.553 0,0" /></g><g
           transform="translate(126.0692,167.3282)"
           id="g168"><path
             id="path170"
             style="fill:#7e7c8a;fill-opacity:1;fill-rule:nonzero;stroke:none"
             d="m 0,0 c 0.519,0.985 0.268,2.379 -0.488,3.197 -0.334,0.36 -0.758,0.623 -1.183,0.868 -1.265,0.727 -2.596,1.338 -3.971,1.823 -0.417,0.147 -0.854,0.284 -1.294,0.238 -0.416,-0.043 -0.796,0.003 -1.15,-0.219 -2.169,-1.359 -3.731,-3.765 -4.882,-6.051 -0.33,-0.654 -0.632,-1.327 -0.815,-2.036 -0.233,-0.9 -0.271,-1.837 -0.29,-2.766 -0.045,-2.236 0.055,-4.627 1.343,-6.455 0.543,-0.771 1.01,-1.58 2.098,-1.134 0.474,0.194 0.997,0.467 1.408,0.669 1.61,0.788 2.538,2.225 3.801,3.373 0.67,0.61 0.732,0.597 1.119,0.985 1.631,1.631 1.737,1.99 2.271,3.186 0.407,0.912 0.638,1.316 1.115,2.386 C -0.494,-0.986 -0.291,-0.553 0,0" /></g><g
           transform="translate(112.1763,135.0547)"
           id="g172"><path
             id="path174"
             style="fill:#000000;fill-opacity:1;fill-rule:nonzero;stroke:none"
             d="m 0,0 c -0.498,2.857 3.893,14.533 9.906,20.546 3.986,3.986 13.007,3.09 14.597,2.332 C 27.86,21.279 23.666,5.511 13.094,6.221 4.219,6.817 0.284,-1.629 0,0" /></g><g
           transform="translate(78.4747,135.3361)"
           id="g176"><path
             id="path178"
             style="fill:#000000;fill-opacity:1;fill-rule:nonzero;stroke:none"
             d="m 0,0 c 0.498,2.857 -3.553,13.738 -9.566,19.75 -3.986,3.986 -12.83,3.605 -14.42,2.847 -3.357,-1.6 0.837,-17.368 11.409,-16.658 C -3.702,6.536 -0.284,-1.629 0,0" /></g><g
           transform="translate(71.7386,142.9607)"
           id="g180"><path
             id="path182"
             style="fill:#866fac;fill-opacity:1;fill-rule:nonzero;stroke:none"
             d="m 0,0 c 0.49,0.081 0.491,9.68 -5.734,12.758 -6.073,3.002 -9.953,1.183 -10.883,1.02 -0.495,-0.086 -0.393,-7.43 3.734,-11.257 C -8.019,-1.99 -1.164,-0.194 0,0" /></g><g
           transform="translate(119.3566,142.9607)"
           id="g184"><path
             id="path186"
             style="fill:#866fac;fill-opacity:1;fill-rule:nonzero;stroke:none"
             d="m 0,0 c -0.49,0.081 -0.49,9.68 5.734,12.758 6.073,3.002 9.953,1.183 10.883,1.02 C 17.112,13.692 17.01,6.348 12.883,2.521 8.019,-1.99 1.164,-0.194 0,0" /></g></g></g><g
       id="g188"><g
         clip-path="url(#clipPath194)"
         id="g190"><g
           id="g196"><g
             id="g198" /><g
             id="g222"><g
               style="opacity:0.69020099"
               id="g220"
               clip-path="url(#clipPath202)"><g
                 id="g206"
                 transform="translate(95.5861,214.8014)"><path
                   id="path204"
                   style="fill:#542f9c;fill-opacity:1;fill-rule:nonzero;stroke:none"
                   d="M 0,0 V -34.016 H 15.928 Z" /></g><g
                 id="g210"
                 transform="translate(95.5861,214.8014)"><path
                   id="path208"
                   style="fill:#915ade;fill-opacity:1;fill-rule:nonzero;stroke:none"
                   d="M 0,0 V -34.016 H -15.928 Z" /></g><g
                 id="g214"
                 transform="translate(95.5861,146.7699)"><path
                   id="path212"
                   style="fill:#542f9c;fill-opacity:1;fill-rule:nonzero;stroke:none"
                   d="M 0,0 V 34.016 H 15.928 Z" /></g><g
                 id="g218"
                 transform="translate(95.5861,146.7699)"><path
                   id="path216"
                   style="fill:#5f32b2;fill-opacity:1;fill-rule:nonzero;stroke:none"
                   d="M 0,0 V 34.016 H -15.928 Z" /></g></g></g></g><g
           id="g224"><g
             id="g226" /><g
             id="g242"><g
               style="opacity:0.69020099"
               id="g240"
               clip-path="url(#clipPath230)"><g
                 id="g234"
                 transform="translate(95.5861,214.8014)"><path
                   id="path232"
                   style="fill:#e0ccf9;fill-opacity:1;fill-rule:nonzero;stroke:none"
                   d="m 0,0 v -34.016 h -9.557 l 4.779,7.087 z" /></g><g
                 id="g238"
                 transform="translate(95.5861,214.8014)"><path
                   id="path236"
                   style="fill:#915ade;fill-opacity:1;fill-rule:nonzero;stroke:none"
                   d="m 0,0 v -34.016 h 9.557 l -4.779,7.087 z" /></g></g></g></g><g
           id="g244"><g
             id="g246" /><g
             id="g262"><g
               style="opacity:0.69020099"
               id="g260"
               clip-path="url(#clipPath250)"><g
                 id="g254"
                 transform="translate(95.5861,146.7773)"><path
                   id="path252"
                   style="fill:#ae7fec;fill-opacity:1;fill-rule:nonzero;stroke:none"
                   d="m 0,0 v 34.016 h -9.557 l 4.779,-7.087 z" /></g><g
                 id="g258"
                 transform="translate(95.5861,146.7773)"><path
                   id="path256"
                   style="fill:#915ade;fill-opacity:1;fill-rule:nonzero;stroke:none"
                   d="M 0,0 V 34.016 H 9.557 L 4.778,26.929 Z" /></g></g></g></g><g
           id="g264"><g
             id="g266" /><g
             id="g278"><g
               style="opacity:0.69020099"
               id="g276"
               clip-path="url(#clipPath270)"><g
                 id="g274"
                 transform="translate(96.7365,183.1277)"><path
                   id="path272"
                   style="fill:#ae7fec;fill-opacity:1;fill-rule:nonzero;stroke:none"
                   d="M 0,0 -1.15,-2.342 H 8.406 L 3.628,4.745 Z" /></g></g></g></g><g
           id="g280"><g
             id="g282" /><g
             id="g294"><g
               style="opacity:0.69020099"
               id="g292"
               clip-path="url(#clipPath286)"><g
                 id="g290"
                 transform="translate(95.5861,185.0376)"><path
                   id="path288"
                   style="fill:#542f9c;fill-opacity:1;fill-rule:nonzero;stroke:none"
                   d="M 0,0 -3.186,-4.252 0,-8.504 3.186,-4.252 Z" /></g></g></g></g></g></g></g></svg>