<?xml version="1.0" encoding="UTF-8" standalone="no"?>
<svg
   xmlns:dc="http://purl.org/dc/elements/1.1/"
   xmlns:cc="http://creativecommons.org/ns#"
   xmlns:rdf="http://www.w3.org/1999/02/22-rdf-syntax-ns#"
   xmlns:svg="http://www.w3.org/2000/svg"
   xmlns="http://www.w3.org/2000/svg"
   viewBox="0 0 812.59869 434.64532"
   height="434.64532"
   width="812.59869"
   xml:space="preserve"
   id="svg2"
   version="1.1"><metadata
     id="metadata8"><rdf:RDF><cc:Work
         rdf:about=""><dc:format>image/svg+xml</dc:format><dc:type
           rdf:resource="http://purl.org/dc/dcmitype/StillImage" /></cc:Work></rdf:RDF></metadata><defs
     id="defs6"><clipPath
       id="clipPath18"
       clipPathUnits="userSpaceOnUse"><path
         id="path16"
         d="M 0,325.984 H 609.449 V 0 H 0 Z" /></clipPath><clipPath
       id="clipPath126"
       clipPathUnits="userSpaceOnUse"><path
         id="path124"
         d="m 175.745,144.08 h 38.004 v -20.734 h -38.004 z" /></clipPath><clipPath
       id="clipPath142"
       clipPathUnits="userSpaceOnUse"><path
         id="path140"
         d="M 48.5017,163.882 H 89.6355 V 137.04 H 48.5017 Z" /></clipPath><clipPath
       id="clipPath174"
       clipPathUnits="userSpaceOnUse"><path
         id="path172"
         d="M 0,325.984 H 609.449 V 0 H 0 Z" /></clipPath></defs><g
     transform="matrix(1.3333333,0,0,-1.3333333,0,434.64533)"
     id="g10"><g
       id="g12"><g
         clip-path="url(#clipPath18)"
         id="g14"><g
           transform="translate(285.9589,146.1263)"
           id="g20"><path
             id="path22"
             style="fill:#000000;fill-opacity:1;fill-rule:nonzero;stroke:none"
             d="M 0,0 H -10.16 V -22.75 H 0 c 3.55,0 6.53,0.37 8.91,1.12 2.39,0.74 4.21,1.96 5.46,3.66 1.25,1.69 1.88,3.91 1.88,6.65 0,3.28 -0.96,5.96 -2.89,8.02 C 11.19,-1.1 6.74,0 0,0 m 3.66,-34.12 h -13.81 v -21.07 c 0,-3.01 -0.71,-5.3 -2.13,-6.86 -1.42,-1.56 -3.22,-2.34 -5.38,-2.34 -2.27,0 -4.1,0.77 -5.48,2.31 -1.39,1.54 -2.08,3.8 -2.08,6.78 V 2.09 c 0,3.32 0.76,5.69 2.29,7.11 1.53,1.42 3.94,2.13 7.26,2.13 H 3.68 c 5.72,0 10.12,-0.44 13.2,-1.32 3.05,-0.85 5.68,-2.25 7.9,-4.21 2.22,-1.96 3.9,-4.37 5.05,-7.21 1.15,-2.84 1.73,-6.04 1.73,-9.6 0,-7.58 -2.34,-13.33 -7.01,-17.24 -4.7,-3.92 -11.65,-5.87 -20.89,-5.87" /></g><g
           transform="translate(346.8388,150.2963)"
           id="g24"><path
             id="path26"
             style="fill:#000000;fill-opacity:1;fill-rule:nonzero;stroke:none"
             d="m 0,0 v -20.57 c 1.76,2.03 3.48,3.64 5.15,4.82 1.68,1.18 3.53,2.07 5.56,2.67 2.03,0.59 4.21,0.89 6.55,0.89 3.52,0 6.64,-0.75 9.37,-2.23 2.72,-1.49 4.87,-3.66 6.42,-6.5 0.98,-1.66 1.64,-3.51 1.98,-5.56 0.34,-2.05 0.51,-4.41 0.51,-7.08 v -26.56 c 0,-2.78 -0.63,-4.88 -1.9,-6.3 -1.27,-1.42 -2.95,-2.13 -5.05,-2.13 -4.57,0 -6.86,2.81 -6.86,8.43 v 23.41 c 0,4.43 -0.66,7.85 -1.98,10.23 -1.32,2.38 -3.83,3.58 -7.52,3.58 -2.47,0 -4.7,-0.7 -6.68,-2.11 -1.98,-1.41 -3.46,-3.33 -4.44,-5.76 -0.75,-2.07 -1.12,-5.74 -1.12,-11.02 v -18.33 c 0,-2.74 -0.62,-4.83 -1.85,-6.27 -1.24,-1.44 -2.95,-2.16 -5.15,-2.16 -4.57,0 -6.86,2.81 -6.86,8.43 V 0 c 0,2.81 0.6,4.92 1.8,6.32 1.2,1.4 2.89,2.11 5.05,2.11 2.2,0 3.92,-0.71 5.15,-2.13 C -0.62,4.87 0,2.77 0,0" /></g><g
           transform="translate(438.2389,109.9263)"
           id="g28"><path
             id="path30"
             style="fill:#000000;fill-opacity:1;fill-rule:nonzero;stroke:none"
             d="m 0,0 c 0,5.65 -1.24,10.05 -3.73,13.2 -2.49,3.15 -5.83,4.72 -10.03,4.72 -2.71,0 -5.1,-0.7 -7.16,-2.11 -2.07,-1.41 -3.66,-3.48 -4.77,-6.22 -1.11,-2.74 -1.68,-5.94 -1.68,-9.6 0,-3.62 0.55,-6.79 1.65,-9.5 1.1,-2.71 2.67,-4.78 4.72,-6.22 2.05,-1.44 4.46,-2.16 7.24,-2.16 4.2,0 7.54,1.58 10.03,4.75 C -1.24,-9.97 0,-5.59 0,0 m 13.92,0 c 0,-4.13 -0.64,-7.94 -1.93,-11.43 -1.29,-3.49 -3.15,-6.48 -5.59,-8.99 -2.44,-2.51 -5.35,-4.43 -8.73,-5.76 -3.39,-1.34 -7.19,-2.01 -11.43,-2.01 -4.2,0 -7.97,0.68 -11.32,2.03 -3.35,1.35 -6.25,3.29 -8.71,5.81 -2.46,2.52 -4.32,5.5 -5.59,8.94 -1.27,3.44 -1.9,7.24 -1.9,11.4 0,4.2 0.64,8.04 1.93,11.53 1.29,3.49 3.13,6.47 5.54,8.94 2.4,2.47 5.31,4.38 8.73,5.71 3.42,1.34 7.19,2.01 11.32,2.01 4.2,0 8.01,-0.68 11.43,-2.03 3.42,-1.35 6.35,-3.28 8.79,-5.79 2.44,-2.51 4.29,-5.48 5.56,-8.94 1.27,-3.46 1.9,-7.26 1.9,-11.42" /></g><g
           transform="translate(283.3289,50.6463)"
           id="g32"><path
             id="path34"
             style="fill:#000000;fill-opacity:1;fill-rule:nonzero;stroke:none"
             d="m 0,0 v -10.63 c 0,-1.68 -0.38,-2.94 -1.14,-3.78 -0.76,-0.84 -1.77,-1.26 -3.02,-1.26 -1.21,0 -2.19,0.42 -2.94,1.26 -0.75,0.84 -1.13,2.1 -1.13,3.78 V 2.11 c 0,2.01 -0.07,3.57 -0.21,4.69 -0.14,1.11 -0.51,2.03 -1.11,2.74 -0.61,0.71 -1.56,1.07 -2.87,1.07 -2.62,0 -4.34,-0.9 -5.17,-2.7 -0.83,-1.8 -1.25,-4.38 -1.25,-7.73 v -10.81 c 0,-1.66 -0.38,-2.92 -1.13,-3.76 -0.75,-0.85 -1.74,-1.27 -2.97,-1.27 -1.21,0 -2.2,0.42 -2.97,1.27 -0.77,0.85 -1.16,2.1 -1.16,3.76 v 22.88 c 0,1.5 0.35,2.65 1.04,3.43 0.69,0.78 1.61,1.17 2.74,1.17 1.09,0 2.01,-0.37 2.74,-1.1 0.73,-0.73 1.1,-1.74 1.1,-3.03 v -0.76 c 1.39,1.66 2.87,2.88 4.45,3.66 1.58,0.78 3.34,1.17 5.27,1.17 2.01,0 3.74,-0.4 5.19,-1.2 1.45,-0.8 2.64,-2.01 3.57,-3.63 1.35,1.64 2.79,2.86 4.34,3.65 1.54,0.79 3.25,1.19 5.13,1.19 2.19,0 4.07,-0.43 5.65,-1.29 1.58,-0.86 2.76,-2.09 3.54,-3.69 0.68,-1.45 1.03,-3.72 1.03,-6.83 v -15.62 c 0,-1.68 -0.38,-2.94 -1.14,-3.78 -0.76,-0.84 -1.77,-1.26 -3.02,-1.26 -1.21,0 -2.2,0.42 -2.97,1.27 -0.77,0.85 -1.16,2.1 -1.16,3.76 V 2.81 c 0,1.72 -0.07,3.1 -0.22,4.13 C 10.06,7.97 9.67,8.84 9.02,9.55 8.37,10.26 7.4,10.6 6.09,10.6 5.04,10.6 4.03,10.29 3.09,9.66 2.14,9.04 1.41,8.2 0.88,7.14 0.29,5.8 0,3.42 0,0" /></g><g
           transform="translate(333.5789,51.0563)"
           id="g36"><path
             id="path38"
             style="fill:#000000;fill-opacity:1;fill-rule:nonzero;stroke:none"
             d="m 0,0 c -1.17,-0.43 -2.88,-0.88 -5.11,-1.36 -2.24,-0.48 -3.78,-0.83 -4.64,-1.05 -0.86,-0.22 -1.68,-0.66 -2.46,-1.32 -0.78,-0.65 -1.17,-1.57 -1.17,-2.74 0,-1.21 0.46,-2.24 1.38,-3.09 0.92,-0.85 2.12,-1.27 3.6,-1.27 1.58,0 3.04,0.35 4.38,1.04 1.34,0.69 2.32,1.59 2.94,2.68 0.72,1.21 1.08,3.2 1.08,5.98 z m 0.53,-11.57 c -1.93,-1.5 -3.8,-2.63 -5.61,-3.38 -1.81,-0.75 -3.83,-1.13 -6.08,-1.13 -2.05,0 -3.85,0.41 -5.41,1.22 -1.56,0.81 -2.75,1.91 -3.59,3.3 -0.84,1.39 -1.26,2.89 -1.26,4.51 0,2.19 0.69,4.05 2.08,5.6 1.39,1.54 3.29,2.58 5.71,3.11 0.51,0.12 1.77,0.38 3.78,0.79 2.01,0.41 3.74,0.79 5.17,1.13 1.43,0.34 2.99,0.76 4.67,1.25 -0.1,2.11 -0.52,3.66 -1.27,4.64 -0.75,0.99 -2.31,1.48 -4.67,1.48 -2.03,0 -3.56,-0.28 -4.58,-0.85 -1.02,-0.57 -1.9,-1.42 -2.64,-2.55 -0.74,-1.13 -1.25,-1.88 -1.55,-2.24 -0.3,-0.36 -0.95,-0.54 -1.95,-0.54 -0.9,0 -1.67,0.29 -2.33,0.86 -0.66,0.58 -0.98,1.31 -0.98,2.21 0,1.41 0.5,2.77 1.49,4.1 0.99,1.33 2.55,2.42 4.66,3.28 2.11,0.86 4.74,1.29 7.88,1.29 3.52,0 6.28,-0.42 8.29,-1.25 C 4.35,14.43 5.77,13.12 6.6,11.32 7.43,9.52 7.85,7.14 7.85,4.17 7.85,2.29 7.85,0.7 7.84,-0.61 7.83,-1.92 7.81,-3.37 7.8,-4.98 c 0,-1.5 0.25,-3.07 0.75,-4.7 0.5,-1.63 0.75,-2.68 0.75,-3.15 0,-0.82 -0.39,-1.57 -1.16,-2.24 -0.77,-0.67 -1.65,-1.01 -2.62,-1.01 -0.82,0 -1.63,0.39 -2.43,1.16 -0.82,0.77 -1.66,1.89 -2.56,3.35" /></g><g
           transform="translate(373.5489,38.6363)"
           id="g40"><path
             id="path42"
             style="fill:#000000;fill-opacity:1;fill-rule:nonzero;stroke:none"
             d="M 0,0 -7.06,11.6 -11.4,7.5 V 1.14 c 0,-1.54 -0.41,-2.73 -1.22,-3.56 -0.81,-0.83 -1.74,-1.25 -2.8,-1.25 -1.23,0 -2.2,0.41 -2.9,1.23 -0.7,0.82 -1.05,2.03 -1.05,3.63 v 34.1 c 0,1.78 0.34,3.13 1.03,4.06 0.68,0.93 1.66,1.39 2.93,1.39 1.23,0 2.21,-0.42 2.93,-1.26 0.72,-0.84 1.08,-2.08 1.08,-3.72 V 16.37 l 8.99,9.43 c 1.11,1.17 1.96,1.97 2.55,2.4 0.59,0.43 1.3,0.64 2.14,0.64 1,0 1.83,-0.32 2.49,-0.95 0.66,-0.63 1,-1.43 1,-2.39 0,-1.17 -1.08,-2.73 -3.25,-4.69 l -4.25,-3.9 8.2,-12.89 c 0.6,-0.96 1.04,-1.68 1.3,-2.18 0.26,-0.5 0.4,-0.97 0.4,-1.42 0,-1.27 -0.35,-2.27 -1.04,-3 -0.69,-0.73 -1.61,-1.1 -2.74,-1.1 -0.98,0 -1.73,0.26 -2.26,0.79 C 1.6,-2.36 0.9,-1.38 0,0" /></g><g
           transform="translate(396.4988,53.8163)"
           id="g44"><path
             id="path46"
             style="fill:#000000;fill-opacity:1;fill-rule:nonzero;stroke:none"
             d="M 0,0 H 14.5 C 14.3,2.73 13.57,4.78 12.29,6.14 11.01,7.5 9.33,8.18 7.24,8.18 5.25,8.18 3.61,7.49 2.33,6.11 1.05,4.73 0.27,2.69 0,0 M 15.64,-4.54 H 0 c 0.02,-1.82 0.38,-3.42 1.1,-4.8 0.71,-1.39 1.66,-2.43 2.84,-3.13 1.18,-0.7 2.49,-1.05 3.91,-1.05 0.96,0 1.83,0.11 2.62,0.34 0.79,0.23 1.56,0.58 2.3,1.05 0.74,0.48 1.42,0.99 2.05,1.54 0.62,0.55 1.44,1.29 2.43,2.23 0.41,0.35 1,0.53 1.76,0.53 0.82,0 1.48,-0.22 1.99,-0.67 0.51,-0.45 0.76,-1.08 0.76,-1.9 0,-0.72 -0.28,-1.57 -0.85,-2.53 -0.57,-0.97 -1.42,-1.89 -2.56,-2.78 -1.14,-0.89 -2.58,-1.63 -4.31,-2.21 -1.73,-0.58 -3.72,-0.88 -5.96,-0.88 -5.14,0 -9.13,1.46 -11.98,4.39 -2.85,2.93 -4.28,6.9 -4.28,11.92 0,2.36 0.35,4.56 1.05,6.58 0.7,2.02 1.73,3.75 3.08,5.2 1.35,1.45 3.01,2.55 4.98,3.33 1.97,0.77 4.16,1.16 6.56,1.16 3.12,0 5.8,-0.66 8.04,-1.98 2.24,-1.32 3.91,-3.02 5.02,-5.11 1.11,-2.09 1.67,-4.22 1.67,-6.39 0,-2.01 -0.58,-3.32 -1.73,-3.91 -1.14,-0.64 -2.76,-0.93 -4.85,-0.93" /></g><g
           transform="translate(455.2989,45.4363)"
           id="g48"><path
             id="path50"
             style="fill:#000000;fill-opacity:1;fill-rule:nonzero;stroke:none"
             d="m 0,0 c 0,-2.21 -0.54,-4.1 -1.61,-5.67 -1.07,-1.57 -2.66,-2.76 -4.76,-3.57 -2.1,-0.81 -4.65,-1.22 -7.66,-1.22 -2.87,0 -5.33,0.44 -7.38,1.32 -2.05,0.88 -3.56,1.98 -4.54,3.3 -0.98,1.32 -1.46,2.64 -1.46,3.97 0,0.88 0.31,1.63 0.94,2.26 0.63,0.63 1.42,0.94 2.37,0.94 0.84,0 1.48,-0.21 1.93,-0.62 0.45,-0.41 0.88,-0.99 1.29,-1.73 0.82,-1.43 1.8,-2.49 2.94,-3.19 1.14,-0.7 2.7,-1.05 4.67,-1.05 1.6,0 2.92,0.36 3.94,1.07 1.02,0.71 1.54,1.53 1.54,2.45 0,1.41 -0.53,2.43 -1.6,3.08 -1.07,0.65 -2.82,1.26 -5.26,1.85 -2.75,0.68 -5,1.4 -6.72,2.15 -1.72,0.75 -3.11,1.74 -4.15,2.97 -1.04,1.23 -1.55,2.74 -1.55,4.54 0,1.6 0.48,3.12 1.44,4.54 0.96,1.42 2.37,2.56 4.23,3.41 1.86,0.85 4.12,1.27 6.75,1.27 2.07,0 3.93,-0.21 5.58,-0.64 1.65,-0.43 3.03,-1.01 4.13,-1.73 1.1,-0.72 1.94,-1.52 2.52,-2.4 0.58,-0.88 0.86,-1.74 0.86,-2.58 0,-0.92 -0.31,-1.67 -0.92,-2.26 -0.61,-0.59 -1.49,-0.88 -2.62,-0.88 -0.82,0 -1.52,0.23 -2.09,0.7 -0.57,0.47 -1.24,1.17 -1.98,2.11 -0.61,0.78 -1.32,1.41 -2.14,1.88 -0.82,0.47 -1.93,0.7 -3.34,0.7 -1.45,0 -2.65,-0.31 -3.6,-0.92 -0.95,-0.61 -1.44,-1.38 -1.44,-2.3 0,-0.84 0.35,-1.53 1.05,-2.07 0.7,-0.54 1.65,-0.98 2.84,-1.33 1.19,-0.35 2.83,-0.78 4.92,-1.29 C -8.4,8.45 -6.37,7.73 -4.8,6.89 -3.23,6.05 -2.04,5.06 -1.23,3.92 -0.42,2.78 0,1.46 0,0" /></g><g
           transform="translate(488.1789,43.3263)"
           id="g52"><path
             id="path54"
             style="fill:#7d0000;fill-opacity:1;fill-rule:nonzero;stroke:none"
             d="m 0,0 v 56.4 c 0,2.93 0.67,5.13 2,6.59 1.33,1.46 3.06,2.2 5.18,2.2 2.18,0 3.95,-0.72 5.3,-2.17 1.35,-1.45 2.03,-3.65 2.03,-6.62 V 0 c 0,-2.96 -0.68,-5.18 -2.03,-6.64 -1.35,-1.46 -3.12,-2.2 -5.3,-2.2 -2.08,0 -3.8,0.74 -5.15,2.22 C 0.67,-5.14 0,-2.93 0,0" /></g><g
           transform="translate(573.2789,95.3263)"
           id="g56"><path
             id="path58"
             style="fill:#7d0000;fill-opacity:1;fill-rule:nonzero;stroke:none"
             d="m 0,0 h -15.82 v -52 c 0,-3 -0.67,-5.22 -2,-6.67 -1.33,-1.45 -3.06,-2.17 -5.18,-2.17 -2.15,0 -3.9,0.73 -5.25,2.2 -1.35,1.46 -2.03,3.68 -2.03,6.64 V 0 H -46.1 c -2.47,0 -4.31,0.54 -5.52,1.64 -1.21,1.09 -1.81,2.53 -1.81,4.32 0,1.86 0.63,3.32 1.88,4.39 1.25,1.07 3.07,1.61 5.44,1.61 h 46.09 c 2.51,0 4.37,-0.55 5.59,-1.66 C 6.79,9.19 7.4,7.74 7.4,5.95 7.4,4.16 6.78,2.72 5.54,1.63 4.32,0.55 2.47,0 0,0" /></g><g
           transform="translate(32.5089,67.7963)"
           id="g60"><path
             id="path62"
             style="fill:#000000;fill-opacity:1;fill-rule:nonzero;stroke:none"
             d="m 0,0 -0.37,13.55 c -0.03,1.09 1.23,1.72 2.07,1.04 8.22,-6.65 39.39,-28.78 97.07,-33.71 86.46,-7.39 99.82,27.84 100.09,19.96 l -0.9,-9.31 c -0.11,-2.12 -1.77,-5.65 -3.16,-7.25 -0.82,-0.95 -19.11,-28.5 -91.04,-24.82 C 24.78,-36.5 8.11,-10.94 1.51,-3.77 0.58,-2.74 0.04,-1.4 0,0" /></g><g
           transform="translate(32.5089,67.7963)"
           id="g64"><path
             id="path66"
             style="fill:none;stroke:#000000;stroke-width:1;stroke-linecap:round;stroke-linejoin:round;stroke-miterlimit:10;stroke-dasharray:none;stroke-opacity:1"
             d="m 0,0 -0.37,13.55 c -0.03,1.09 1.23,1.72 2.07,1.04 8.22,-6.65 39.39,-28.78 97.07,-33.71 86.46,-7.39 99.82,27.84 100.09,19.96 l -0.9,-9.31 c -0.11,-2.12 -1.77,-5.65 -3.16,-7.25 -0.82,-0.95 -19.11,-28.5 -91.04,-24.82 C 24.78,-36.5 8.11,-10.94 1.51,-3.77 0.58,-2.74 0.04,-1.4 0,0 Z" /></g><g
           transform="translate(30.9689,120.6363)"
           id="g68"><path
             id="path70"
             style="fill:#b00707;fill-opacity:1;fill-rule:nonzero;stroke:none"
             d="m 0,0 c 13.94,-15.14 45.44,-31.29 97.57,-37.96 74.8,-9.58 99.4,13.26 106.56,19.5 4.63,4.03 0.29,-18.89 -3.72,-22 -1.72,-1.33 -22.24,-25.66 -95.84,-21.91 C 46.69,-59.42 7.58,-33.02 1.18,-26.07 -0.8,-23.94 -3.19,3.46 0,0" /></g><g
           transform="translate(30.9689,120.6363)"
           id="g72"><path
             id="path74"
             style="fill:none;stroke:#b00707;stroke-width:1;stroke-linecap:round;stroke-linejoin:round;stroke-miterlimit:10;stroke-dasharray:none;stroke-opacity:1"
             d="m 0,0 c 13.94,-15.14 45.44,-31.29 97.57,-37.96 74.8,-9.58 99.4,13.26 106.56,19.5 4.63,4.03 0.29,-18.89 -3.72,-22 -1.72,-1.33 -22.24,-25.66 -95.84,-21.91 C 46.69,-59.42 7.58,-33.02 1.18,-26.07 -0.8,-23.94 -3.19,3.46 0,0 Z" /></g><g
           transform="translate(201.1289,154.7163)"
           id="g76"><path
             id="path78"
             style="fill:#000000;fill-opacity:1;fill-rule:nonzero;stroke:none"
             d="m 0,0 c -0.25,-0.63 -0.51,-1.28 -0.76,-1.92 -0.67,-1.68 0.27,-3.56 2.01,-4.05 20.31,-5.74 32.31,-14.24 30.5,-20.78 -2.86,-10.35 -49.37,-18.8 -101.12,-12.03 -61.5,8.05 -98.06,28.03 -92.82,44.17 2.47,7.62 14.4,16.89 47.97,11.64 1.45,-0.23 2.85,0.62 3.33,2 0.27,0.76 0.54,1.54 0.82,2.31 0.61,1.72 -0.44,3.6 -2.22,3.99 -25.49,5.52 -55.45,-1.41 -59.58,-22.68 -5.49,-28.26 35.66,-53.65 102.92,-60.87 61.67,-6.6 102.14,10.83 105.7,24.47 2.5,9.56 4.21,25.33 -33.1,35.57 C 2.15,2.22 0.58,1.45 0,0" /></g><g
           transform="translate(201.1289,154.7163)"
           id="g80"><path
             id="path82"
             style="fill:none;stroke:#000000;stroke-width:1;stroke-linecap:square;stroke-linejoin:bevel;stroke-miterlimit:10;stroke-dasharray:none;stroke-opacity:1"
             d="m 0,0 c -0.25,-0.63 -0.51,-1.28 -0.76,-1.92 -0.67,-1.68 0.27,-3.56 2.01,-4.05 20.31,-5.74 32.31,-14.24 30.5,-20.78 -2.86,-10.35 -49.37,-18.8 -101.12,-12.03 -61.5,8.05 -98.06,28.03 -92.82,44.17 2.47,7.62 14.4,16.89 47.97,11.64 1.45,-0.23 2.85,0.62 3.33,2 0.27,0.76 0.54,1.54 0.82,2.31 0.61,1.72 -0.44,3.6 -2.22,3.99 -25.49,5.52 -55.45,-1.41 -59.58,-22.68 -5.49,-28.26 35.66,-53.65 102.92,-60.87 61.67,-6.6 102.14,10.83 105.7,24.47 2.5,9.56 4.21,25.33 -33.1,35.57 C 2.15,2.22 0.58,1.45 0,0 Z" /></g><g
           transform="translate(113.3489,136.3163)"
           id="g84"><path
             id="path86"
             style="fill:#000000;fill-opacity:1;fill-rule:nonzero;stroke:none"
             d="m 0,0 c 1.89,-3.31 0.77,-3.45 1.21,-5.83 0.18,-0.98 0.9,-1.98 1.9,-2.01 1.4,-0.04 2.56,0.87 2.43,4.53 C 5.43,-0.21 3.62,2.12 3.27,5.2 2.83,9.14 6.68,12.42 6.53,16.38 6.42,19.35 4.42,21.15 4.59,24.11 4.63,24.9 4.34,26.56 3.83,27.16 3.48,27.57 2.9,27.7 2.36,27.65 1.28,27.56 0.22,26.86 0.16,25.77 0.08,24.42 0.02,22.84 0.76,21.56 1.51,20.28 2.17,19.02 2.29,17.54 2.45,15.64 2.05,13.93 1.08,12.28 0.07,10.56 -0.79,8.48 -1.06,6.48 -1.37,4.01 -0.57,0.99 0,0" /></g><g
           transform="translate(109.5289,132.7663)"
           id="g88"><path
             id="path90"
             style="fill:#000000;fill-opacity:1;fill-rule:nonzero;stroke:none"
             d="m 0,0 c 0.12,-1.2 -1.69,-2.43 -2.84,-2.05 -1.21,0.4 -1.75,1.78 -2.14,3 -1.17,3.65 -2.33,7.6 -1.1,11.23 0.56,1.64 1.58,3.09 2.07,4.75 0.44,1.49 0.43,3.11 -0.04,4.59 -0.34,1.09 -0.92,2.11 -1,3.25 -0.09,1.13 0.56,2.46 1.69,2.57 0.95,0.09 1.75,-0.68 2.3,-1.46 C 1.08,22.81 1.4,18.57 -0.24,15.21 -1.05,13.55 -2.42,11.06 -2.68,9.24 -2.96,7.2 -0.21,2.24 0,0" /></g><g
           transform="translate(128.2789,127.5263)"
           id="g92"><path
             id="path94"
             style="fill:#000000;fill-opacity:1;fill-rule:nonzero;stroke:none"
             d="m 0,0 c -0.34,-0.93 -1.72,-1.09 -2.49,-0.47 -0.77,0.62 -1.02,1.69 -1,2.68 0.02,0.99 0.48,2.22 0.42,3.2 -0.13,2.07 -1.72,3.6 -2.4,5.56 -0.79,2.25 -0.68,4.8 0.28,6.98 1.07,2.43 3.21,4.61 3,7.27 -0.17,2.12 -1.8,3.81 -2.5,5.81 -0.56,1.61 -0.49,3.37 -0.22,5.05 0.15,0.96 0.37,1.92 0.87,2.75 0.49,0.83 1.3,1.52 2.26,1.68 0.96,0.15 1.53,-0.35 1.87,-1.26 0.48,-1.33 -0.17,-2.64 -0.58,-3.99 -0.52,-1.73 0.22,-3.58 1.07,-5.18 0.85,-1.6 1.6,-3.47 1.65,-5.28 C 2.28,22.8 1.39,21.24 0.35,19.53 -0.69,17.82 -1.72,15.91 -1.43,13.92 -1.19,12.27 -0.32,10.64 0.4,9.13 1.9,5.93 0.95,2.63 0,0" /></g><g
           transform="translate(139.1689,127.3863)"
           id="g96"><path
             id="path98"
             style="fill:#000000;fill-opacity:1;fill-rule:nonzero;stroke:none"
             d="m 0,0 c -0.59,-1.69 -2.93,-3.07 -4.32,-1.11 -0.43,0.6 0.09,1.48 0.29,2.19 0.2,0.72 1.34,3.35 -0.85,8.51 -0.88,2.06 -1.83,4.26 -1.43,6.46 0.45,2.5 2.54,4.47 2.92,6.98 0.52,3.39 -2.19,6.4 -2.84,9.77 -0.81,4.2 1.9,6.73 2.33,8.64 0.29,1.31 0.02,2.91 1.03,3.79 0.86,0.74 2.29,0.46 3.03,-0.41 C 0.89,43.96 1.02,42.71 0.77,41.6 0.28,39.38 -1.49,37.49 -1.69,35.31 -1.99,32.06 1.02,29.37 1.33,26.12 1.53,24.01 0.57,20.67 -0.48,18.83 -2.28,15.67 -2.14,13.22 -1.02,11.2 0.87,7.81 1.21,3.44 0,0" /></g><g
           transform="translate(146.1889,124.2163)"
           id="g100"><path
             id="path102"
             style="fill:#000000;fill-opacity:1;fill-rule:nonzero;stroke:none"
             d="m 0,0 c -2.67,0.48 -0.8,5.21 -0.47,6.47 0.54,2.1 -0.34,4.28 -1.27,6.24 -0.93,1.96 -1.95,4.03 -1.7,6.18 0.41,3.54 4.17,6.37 3.57,9.89 -0.23,1.35 -1.09,2.5 -1.71,3.72 -1.31,2.6 -1.5,5.74 -0.54,8.49 0.55,1.55 1.45,3.02 1.5,4.66 0.03,1.19 -0.14,2.34 -0.29,3.52 -0.15,1.18 -0.16,2.55 0.83,3.21 0.91,0.61 2.34,0.5 3.04,-0.34 C 4.17,50.58 4.64,46.58 3.55,43.95 2.76,42.05 0.92,40.55 0.8,38.5 0.66,36.01 2.82,34.08 3.93,31.84 5,29.67 5.05,27.02 4.07,24.81 3,22.42 0.77,20.41 0.77,17.79 0.77,14.61 4.44,12.41 4.44,9.23 4.42,1.57 1.78,-0.32 0,0" /></g><g
           transform="translate(156.2089,123.5563)"
           id="g104"><path
             id="path106"
             style="fill:#000000;fill-opacity:1;fill-rule:nonzero;stroke:none"
             d="m 0,0 c -3.75,1.11 -0.37,5.82 -0.18,8.13 0.24,2.99 -2.42,5.43 -3.02,8.37 -0.56,2.79 0.53,5.22 1.5,7.96 0.52,1.46 1.68,3.19 1.63,4.71 -0.07,2.17 -1.57,4.19 -2.37,6.21 -0.8,2.02 -0.93,4.28 -0.24,6.35 0.69,2.08 1.91,3.73 2.28,5.89 0.64,3.79 -3.53,8.29 0.05,9.16 2.19,0.53 3.24,-2.03 3.74,-3.79 C 4.03,50.78 3.67,48.43 3.05,46.22 2.31,43.56 1.6,41.24 1.42,38.48 1.16,34.59 4.52,30.71 4.19,26.83 3.93,23.77 1.32,22.59 1.04,19.54 0.84,17.41 1.68,15.39 2.6,13.46 5.76,6.8 1.04,-0.31 0,0" /></g><g
           transform="translate(156.2089,123.5563)"
           id="g108"><path
             id="path110"
             style="fill:none;stroke:#000000;stroke-width:1;stroke-linecap:round;stroke-linejoin:round;stroke-miterlimit:10;stroke-dasharray:none;stroke-opacity:1"
             d="m 0,0 c -3.75,1.11 -0.37,5.82 -0.18,8.13 0.24,2.99 -2.42,5.43 -3.02,8.37 -0.56,2.79 0.53,5.22 1.5,7.96 0.52,1.46 1.68,3.19 1.63,4.71 -0.07,2.17 -1.57,4.19 -2.37,6.21 -0.8,2.02 -0.93,4.28 -0.24,6.35 0.69,2.08 1.91,3.73 2.28,5.89 0.64,3.79 -3.53,8.29 0.05,9.16 2.19,0.53 3.24,-2.03 3.74,-3.79 C 4.03,50.78 3.67,48.43 3.05,46.22 2.31,43.56 1.6,41.24 1.42,38.48 1.16,34.59 4.52,30.71 4.19,26.83 3.93,23.77 1.32,22.59 1.04,19.54 0.84,17.41 1.68,15.39 2.6,13.46 5.76,6.8 1.04,-0.31 0,0 Z" /></g><g
           transform="translate(168.0989,123.5663)"
           id="g112"><path
             id="path114"
             style="fill:#000000;fill-opacity:1;fill-rule:nonzero;stroke:none"
             d="m 0,0 c -0.72,-0.56 -1.79,-0.63 -2.58,-0.16 -1.69,0.98 0.78,7.23 0.81,8.93 0.06,2.96 -2.99,5.79 -3.35,8.72 -0.46,3.71 3.05,6.91 3.09,10.65 0.04,4.02 -3.67,6.95 -3.07,10.92 0.43,2.83 3.09,4.73 3.37,7.58 0.15,1.55 -0.18,4.07 -0.85,5.48 -1.08,2.28 -2.58,6.08 -0.88,8.32 0.94,1.24 3.15,0.12 3.64,-1.36 0.27,-0.81 -0.2,-3.11 1.62,-8.01 0.73,-1.96 1.05,-4.14 0.33,-6.1 C 1.27,42.65 -0.29,40.36 -0.62,37.9 -0.96,35.4 0.41,34.08 1.47,31.79 2.61,29.31 2.47,26.27 1.09,23.91 0.25,22.47 -0.28,20.7 -0.52,19.06 -0.82,16.94 -0.05,15.55 0.93,13.64 2.79,10.02 0.73,0.56 0,0" /></g><g
           transform="translate(168.0989,123.5663)"
           id="g116"><path
             id="path118"
             style="fill:none;stroke:#000000;stroke-width:1;stroke-linecap:round;stroke-linejoin:round;stroke-miterlimit:10;stroke-dasharray:none;stroke-opacity:1"
             d="m 0,0 c -0.72,-0.56 -1.79,-0.63 -2.58,-0.16 -1.69,0.98 0.78,7.23 0.81,8.93 0.06,2.96 -2.99,5.79 -3.35,8.72 -0.46,3.71 3.05,6.91 3.09,10.65 0.04,4.02 -3.67,6.95 -3.07,10.92 0.43,2.83 3.09,4.73 3.37,7.58 0.15,1.55 -0.18,4.07 -0.85,5.48 -1.08,2.28 -2.58,6.08 -0.88,8.32 0.94,1.24 3.15,0.12 3.64,-1.36 0.27,-0.81 -0.2,-3.11 1.62,-8.01 0.73,-1.96 1.05,-4.14 0.33,-6.1 C 1.27,42.65 -0.29,40.36 -0.62,37.9 -0.96,35.4 0.41,34.08 1.47,31.79 2.61,29.31 2.47,26.27 1.09,23.91 0.25,22.47 -0.28,20.7 -0.52,19.06 -0.82,16.94 -0.05,15.55 0.93,13.64 2.79,10.02 0.73,0.56 0,0 Z" /></g><g
           id="g120"><g
             id="g122" /><g
             id="g134"><g
               id="g132"
               clip-path="url(#clipPath126)"><g
                 id="g130"
                 transform="translate(178.5489,130.9163)"><path
                   id="path128"
                   style="fill:#4d4d4d;fill-opacity:1;fill-rule:nonzero;stroke:none"
                   d="M 0,0 C 0.83,6.59 -9.82,16.14 5.67,12.27 20.65,8.53 35.2,2.53 35.2,-0.48 35.2,-2.99 23.74,-6.13 9.69,-7.22 -5.46,-8.4 -0.85,-6.75 0,0" /></g></g></g></g><g
           id="g136"><g
             id="g138" /><g
             id="g150"><g
               id="g148"
               clip-path="url(#clipPath142)"><g
                 id="g146"
                 transform="translate(85.6989,142.9163)"><path
                   id="path144"
                   style="fill:#4d4d4d;fill-opacity:1;fill-rule:nonzero;stroke:none"
                   d="m 0,0 c 7.86,7.86 2.12,7.34 -1.48,12.37 -1.71,2.39 3.35,8.81 -5.03,8.59 C -20.37,20.61 -36.12,18.61 -37.14,15.88 -37.99,13.62 -29.28,4.77 -16.26,0.05 14.28,-11 -3.94,-3.94 0,0" /></g></g></g></g><g
           transform="translate(274.6689,178.4663)"
           id="g152"><path
             id="path154"
             style="fill:#000000;fill-opacity:1;fill-rule:nonzero;stroke:none"
             d="m 0,0 -15,-3.01 -6.6,-1.33 -75.57,-15.19 c -3,-0.69 -4.41,0.31 -4.85,2.46 -0.42,2.05 -0.1,3.54 2.96,4.4 l 75.17,20.09 6.52,1.74 14.29,3.82 c 3.18,0.89 6.24,0.49 6.96,-2.73 l 1,-4.52 C 5.56,2.64 3.08,0.71 0,0" /></g><g
           transform="translate(267.9689,232.3563)"
           id="g156"><path
             id="path158"
             style="fill:#000000;fill-opacity:1;fill-rule:nonzero;stroke:none"
             d="m 0,0 -9.35,-3.94 -6.03,-2.53 -154.53,-65.02 c -5.22,-2.33 -7.12,-2.97 -7.8,-0.88 -0.64,2 0.5,2.8 5.84,5.35 l 150.47,71.6 5.87,2.8 10.68,5.08 C 0.7,15.1 6.01,16.29 7.12,13.17 L 8.68,8.79 C 9.75,5.8 5.37,2.4 0,0" /></g><g
           transform="translate(258.6189,228.4163)"
           id="g160"><path
             id="path162"
             style="fill:#b00707;fill-opacity:1;fill-rule:nonzero;stroke:none"
             d="m 0,0 -6.03,-2.53 -6.02,11.05 5.87,2.8 z" /></g><g
           transform="translate(92.7089,142.7263)"
           id="g164"><path
             id="path166"
             style="fill:#000000;fill-opacity:1;fill-rule:nonzero;stroke:none"
             d="m 0,0 c -0.32,1.27 0.39,2.13 1.16,2.32 l 5,1.66 C 6.89,4.16 7.21,3.02 7.44,2.18 7.66,1.35 7.94,0.05 7.2,-0.14 L 2.03,-1.22 C 1.3,-1.4 0.34,-1.35 0,0" /></g></g></g><g
       id="g168"><g
         clip-path="url(#clipPath174)"
         id="g170"><g
           transform="translate(205.3833,229.5588)"
           id="g176"><path
             id="path178"
             style="fill:#7d0000;fill-opacity:1;fill-rule:nonzero;stroke:none"
             d="m 0,0 c -0.605,-0.24 -1.229,-0.354 -1.843,-0.354 -1.99,0 -3.87,1.195 -4.649,3.157 -3.901,9.832 -12.58,14.112 -25.802,12.732 -0.091,-0.01 -0.179,0.003 -0.27,-10e-4 -0.088,-0.005 -0.171,-0.027 -0.26,-0.027 -0.082,0 -0.159,0.021 -0.24,0.024 -0.17,0.009 -0.336,0.026 -0.502,0.051 -0.17,0.026 -0.336,0.058 -0.5,0.1 -0.144,0.037 -0.284,0.081 -0.423,0.131 -0.175,0.062 -0.344,0.131 -0.509,0.211 -0.117,0.057 -0.229,0.119 -0.341,0.185 -0.17,0.099 -0.333,0.206 -0.489,0.324 -0.094,0.072 -0.183,0.147 -0.272,0.225 -0.155,0.135 -0.301,0.277 -0.438,0.43 -0.074,0.083 -0.142,0.167 -0.21,0.255 -0.132,0.169 -0.253,0.343 -0.363,0.529 -0.053,0.088 -0.101,0.179 -0.148,0.271 -0.103,0.201 -0.192,0.408 -0.267,0.624 -0.032,0.091 -0.059,0.182 -0.086,0.275 -0.065,0.229 -0.113,0.461 -0.145,0.701 -0.007,0.049 -0.025,0.094 -0.03,0.144 -0.006,0.054 0.003,0.105 -10e-4,0.158 -0.009,0.122 -0.036,0.238 -0.036,0.362 0,22.232 -16.743,38.998 -38.946,39 -22.196,-0.002 -38.935,-16.768 -38.935,-39 0,-0.239 -0.037,-0.469 -0.07,-0.7 0.109,-0.667 0.09,-1.365 -0.092,-2.062 -0.696,-2.672 -3.428,-4.276 -6.1,-3.576 -9.059,2.363 -16.19,1.603 -21.191,-2.26 -5.001,-3.864 -7.987,-11.21 -7.987,-19.652 0,-0.273 -0.038,-0.535 -0.08,-0.796 0.014,-0.095 0.044,-0.184 0.053,-0.28 1.737,-20.44 10.637,-21.35 38.519,-21.175 6.778,0.045 14.462,0.095 22.81,-0.325 2.758,-0.139 4.881,-2.487 4.742,-5.244 -0.134,-2.673 -2.343,-4.75 -4.989,-4.75 -0.085,0 -0.17,0.002 -0.255,0.007 -8.065,0.405 -15.595,0.357 -22.243,0.312 -25.673,-0.166 -45.946,-0.299 -48.548,30.328 -0.036,0.42 -0.003,0.826 0.062,1.224 -0.033,0.23 -0.071,0.46 -0.071,0.699 0,11.688 4.328,21.736 11.873,27.565 4.48,3.461 12.072,6.864 23.776,5.233 2.224,25.261 22.816,44.446 48.718,44.452 0.002,0 0.002,0 0.004,0 0.001,0 0.003,0 0.004,0 0.002,0 0.004,0 0.005,0 0.001,0 0.002,0 0.003,0 C -51.1,69.501 -30.644,50.681 -28.096,25.776 -8.099,25.954 -0.188,14.029 2.803,6.492 3.822,3.925 2.567,1.019 0,0" /></g></g></g></g></svg>