<?xml version="1.0" encoding="UTF-8" standalone="no"?>
<svg
   xmlns:dc="http://purl.org/dc/elements/1.1/"
   xmlns:cc="http://creativecommons.org/ns#"
   xmlns:rdf="http://www.w3.org/1999/02/22-rdf-syntax-ns#"
   xmlns:svg="http://www.w3.org/2000/svg"
   xmlns="http://www.w3.org/2000/svg"
   viewBox="0 0 1122.52 793.70135"
   height="793.70135"
   width="1122.52"
   xml:space="preserve"
   id="svg2"
   version="1.1"><metadata
     id="metadata8"><rdf:RDF><cc:Work
         rdf:about=""><dc:format>image/svg+xml</dc:format><dc:type
           rdf:resource="http://purl.org/dc/dcmitype/StillImage" /></cc:Work></rdf:RDF></metadata><defs
     id="defs6"><clipPath
       id="clipPath18"
       clipPathUnits="userSpaceOnUse"><path
         id="path16"
         d="M 0,595.276 H 841.89 V 0 H 0 Z" /></clipPath></defs><g
     transform="matrix(1.3333333,0,0,-1.3333333,0,793.70133)"
     id="g10"><g
       id="g12"><g
         clip-path="url(#clipPath18)"
         id="g14"><g
           transform="translate(385.9519,432.868)"
           id="g20"><path
             id="path22"
             style="fill:#8f6d1d;fill-opacity:1;fill-rule:nonzero;stroke:none"
             d="m 0,0 c 16.235,-27.815 21.053,-57.105 14.322,-76.066 5.759,1.438 11.76,2.321 17.951,2.534 6.419,0.221 12.682,-0.289 18.725,-1.412 -9.865,17.783 -9.219,48.116 3.495,78.476 12.969,30.97 34.799,53.159 54.815,58.278 C 83.65,70.715 55.953,75.141 27.183,74.149 -6.042,73.005 -37.351,64.767 -65.34,50.943 -44.205,50.25 -17.866,30.608 0,0" /></g><g
           transform="translate(385.9519,432.868)"
           id="g24"><path
             id="path26"
             style="fill:none;stroke:#000000;stroke-width:1;stroke-linecap:butt;stroke-linejoin:miter;stroke-miterlimit:10;stroke-dasharray:none;stroke-opacity:1"
             d="m 0,0 c 16.235,-27.815 21.053,-57.105 14.322,-76.066 5.759,1.438 11.76,2.321 17.951,2.534 6.419,0.221 12.682,-0.289 18.725,-1.412 -9.865,17.783 -9.219,48.116 3.495,78.476 12.969,30.97 34.799,53.159 54.815,58.278 C 83.65,70.715 55.953,75.141 27.183,74.149 -6.042,73.005 -37.351,64.767 -65.34,50.943 -44.205,50.25 -17.866,30.608 0,0 Z" /></g><g
           transform="translate(279.64,103.0329)"
           id="g28"><path
             id="path30"
             style="fill:#8f6d1d;fill-opacity:1;fill-rule:nonzero;stroke:none"
             d="M 0,0 C 33.65,-26.836 75.029,-44.264 120.057,-48.445 106.795,-34.23 97.939,-8.56 97.939,20.75 c 0,37.303 14.348,68.695 33.865,78.092 -11.571,1.237 -22.436,4.791 -32.078,10.165 C 104.464,88.636 92.098,58.437 66.868,33.482 45.277,12.126 19.808,0.095 0,0" /></g><g
           transform="translate(279.64,103.0329)"
           id="g32"><path
             id="path34"
             style="fill:none;stroke:#000000;stroke-width:1;stroke-linecap:butt;stroke-linejoin:miter;stroke-miterlimit:10;stroke-dasharray:none;stroke-opacity:1"
             d="M 0,0 C 33.65,-26.836 75.029,-44.264 120.057,-48.445 106.795,-34.23 97.939,-8.56 97.939,20.75 c 0,37.303 14.348,68.695 33.865,78.092 -11.571,1.237 -22.436,4.791 -32.078,10.165 C 104.464,88.636 92.098,58.437 66.868,33.482 45.277,12.126 19.808,0.095 0,0 Z" /></g><g
           transform="translate(525.5362,401.5375)"
           id="g36"><path
             id="path38"
             style="fill:#8f6d1d;fill-opacity:1;fill-rule:nonzero;stroke:none"
             d="m 0,0 c -12.914,-30.838 -34.612,-52.961 -54.557,-58.204 10.505,-7.654 19.042,-17.684 24.721,-29.293 7.387,19.216 32.684,38.097 65.843,46.885 28.186,7.47 55.135,5.812 72.485,-2.828 C 89.431,8.852 51.746,51.938 3.698,78.109 13.352,60.278 12.627,30.152 0,0" /></g><g
           transform="translate(525.5362,401.5375)"
           id="g40"><path
             id="path42"
             style="fill:none;stroke:#000000;stroke-width:1;stroke-linecap:butt;stroke-linejoin:miter;stroke-miterlimit:10;stroke-dasharray:none;stroke-opacity:1"
             d="m 0,0 c -12.914,-30.838 -34.612,-52.961 -54.557,-58.204 10.505,-7.654 19.042,-17.684 24.721,-29.293 7.387,19.216 32.684,38.097 65.843,46.885 28.186,7.47 55.135,5.812 72.485,-2.828 C 89.431,8.852 51.746,51.938 3.698,78.109 13.352,60.278 12.627,30.152 0,0 Z" /></g><g
           transform="translate(275.8497,342.404)"
           id="g44"><path
             id="path46"
             style="fill:#8f6d1d;fill-opacity:1;fill-rule:nonzero;stroke:none"
             d="m 0,0 c 30.967,-4.033 56.591,-17.188 68.387,-33.158 4.422,10.693 11.208,20.271 19.765,28.121 C 68.559,-0.637 46.137,17.849 30.34,44.913 12.62,75.272 8.504,107.384 18.157,125.909 -30.219,93.167 -65.115,42.312 -77.109,-16.564 -62.154,-2.803 -32.62,4.248 0,0" /></g><g
           transform="translate(275.8497,342.404)"
           id="g48"><path
             id="path50"
             style="fill:none;stroke:#000000;stroke-width:1;stroke-linecap:butt;stroke-linejoin:miter;stroke-miterlimit:10;stroke-dasharray:none;stroke-opacity:1"
             d="m 0,0 c 30.967,-4.033 56.591,-17.188 68.387,-33.158 4.422,10.693 11.208,20.271 19.765,28.121 C 68.559,-0.637 46.137,17.849 30.34,44.913 12.62,75.272 8.504,107.384 18.157,125.909 -30.219,93.167 -65.115,42.312 -77.109,-16.564 -62.154,-2.803 -32.62,4.248 0,0 Z" /></g><g
           transform="translate(645.7934,309.8459)"
           id="g52"><path
             id="path54"
             style="fill:#8f6d1d;fill-opacity:1;fill-rule:nonzero;stroke:none"
             d="m 0,0 c -11.008,-15.525 -33.035,-29.661 -60.413,-36.917 -34.032,-9.02 -66.279,-4.745 -81.975,9.078 0.274,-14.711 -3.669,-28.591 -10.797,-40.554 19.586,8.753 52.775,0.768 82.119,-21.503 21.882,-16.608 36.546,-37.314 41.157,-55.472 21.51,36.101 33.25,78.593 31.695,123.713 C 1.534,-14.337 0.924,-7.117 0,0" /></g><g
           transform="translate(645.7934,309.8459)"
           id="g56"><path
             id="path58"
             style="fill:none;stroke:#000000;stroke-width:1;stroke-linecap:butt;stroke-linejoin:miter;stroke-miterlimit:10;stroke-dasharray:none;stroke-opacity:1"
             d="m 0,0 c -11.008,-15.525 -33.035,-29.661 -60.413,-36.917 -34.032,-9.02 -66.279,-4.745 -81.975,9.078 0.274,-14.711 -3.669,-28.591 -10.797,-40.554 19.586,8.753 52.775,0.768 82.119,-21.503 21.882,-16.608 36.546,-37.314 41.157,-55.472 21.51,36.101 33.25,78.593 31.695,123.713 C 1.534,-14.337 0.924,-7.117 0,0 Z" /></g><g
           transform="translate(518.6592,147.6741)"
           id="g60"><path
             id="path62"
             style="fill:#8f6d1d;fill-opacity:1;fill-rule:nonzero;stroke:none"
             d="M 0,0 C -30.203,22.924 -46.689,53.662 -41.903,74.717 -53.429,64.53 -67.995,57.427 -84.222,54.823 c 20.217,-8.554 35.243,-40.539 35.243,-78.714 0,-28.867 -8.596,-54.189 -21.527,-68.528 53.249,6.375 100.576,31.08 135.764,67.46 C 46.267,-25.394 22.05,-16.736 0,0" /></g><g
           transform="translate(518.6592,147.6741)"
           id="g64"><path
             id="path66"
             style="fill:none;stroke:#000000;stroke-width:1;stroke-linecap:butt;stroke-linejoin:miter;stroke-miterlimit:10;stroke-dasharray:none;stroke-opacity:1"
             d="M 0,0 C -30.203,22.924 -46.689,53.662 -41.903,74.717 -53.429,64.53 -67.995,57.427 -84.222,54.823 c 20.217,-8.554 35.243,-40.539 35.243,-78.714 0,-28.867 -8.596,-54.189 -21.527,-68.528 53.249,6.375 100.576,31.08 135.764,67.46 C 46.267,-25.394 22.05,-16.736 0,0 Z" /></g><g
           transform="translate(281.3818,200.9324)"
           id="g68"><path
             id="path70"
             style="fill:#8f6d1d;fill-opacity:1;fill-rule:nonzero;stroke:none"
             d="M 0,0 C 23.723,23.465 52.132,35.68 72.563,33.161 65.283,42.825 60.249,54.159 58.162,66.491 42.815,53.541 14.083,47.03 -17.554,51.15 c -32.027,4.171 -58.338,18.1 -69.548,34.81 -0.132,-4.741 -0.135,-9.512 0.031,-14.318 1.82,-52.835 21.576,-100.825 53.216,-138.321 C -33.981,-47.012 -21.787,-21.551 0,0" /></g><g
           transform="translate(281.3818,200.9324)"
           id="g72"><path
             id="path74"
             style="fill:none;stroke:#000000;stroke-width:1;stroke-linecap:butt;stroke-linejoin:miter;stroke-miterlimit:10;stroke-dasharray:none;stroke-opacity:1"
             d="M 0,0 C 23.723,23.465 52.132,35.68 72.563,33.161 65.283,42.825 60.249,54.159 58.162,66.491 42.815,53.541 14.083,47.03 -17.554,51.15 c -32.027,4.171 -58.338,18.1 -69.548,34.81 -0.132,-4.741 -0.135,-9.512 0.031,-14.318 1.82,-52.835 21.576,-100.825 53.216,-138.321 C -33.981,-47.012 -21.787,-21.551 0,0 Z" /></g></g></g></g></svg>